<svg viewBox="0 0.008 136.761 107.992" xmlns="http://www.w3.org/2000/svg"><defs><linearGradient id="a" x1=".5" x2=".5" y1="1.642" y2="-.139"><stop offset="0" stop-color="#ffccbb" class="stop-color-004400"></stop><stop offset=".511" stop-color="#ffccbb" class="stop-color-018c01"></stop><stop offset="1" stop-color="#ffccbb" class="stop-color-91cd91"></stop></linearGradient><linearGradient id="b" x1="0" x2="1" y1=".5" y2=".5"><stop offset="0" stop-color="#c9a599" stop-opacity=".301960784313725" class="stop-color-ffffff"></stop><stop offset="1" stop-color="#c9a599" stop-opacity=".2" class="stop-color-ffffff"></stop></linearGradient></defs><path d="M52.984 108 0 55.008l23.273-23.276 29.712 29.71L114.432.009l22.329 22.333-1.886 1.886-20.443-20.448-61.447 61.434-29.712-29.71L3.771 55.008l51.098 51.107L52.984 108z" fill="#ffccbb" class="fill-006600"></path><path d="M135.818 23.285 114.433 1.894 52.986 63.328l-29.713-29.71-21.388 21.39 19.288 19.288 13.35 13.356 19.403 19.406" fill="url(#a)" class="fillurl(-a)"></path><path d="m52.986 63.327-29.712-29.71L1.886 55.01l19.287 19.287 11.015 11.022c15.16-9.344 40.404-22.33 69.329-26.944l34.301-35.09-21.385-21.39-61.447 61.433z" fill="url(#b)" class="fillurl(-b)"></path></svg>